<svg width="238" height="238" viewBox="0 0 238 238" fill="none" xmlns="http://www.w3.org/2000/svg">
<g opacity="0.3">
<path d="M143.532 124.033H37.6133V178.317H143.532L183.567 151.096L143.532 124.033Z" fill="#29C3FF"/>
<path d="M0.894531 106.467V145.817C0.904678 154.433 4.3321 162.694 10.425 168.787C16.5178 174.88 24.7786 178.307 33.3952 178.317H55.1788V106.467H0.894531Z" fill="#28296A"/>
<path d="M148.464 172.169L121.938 198.696L160.41 237.168L211.181 186.398L196.6 174.804L148.464 172.169Z" fill="#F6366A"/>
<path d="M55.1788 0.710571H0.894531V124.033H55.1788V0.710571Z" fill="#F6366A"/>
<path d="M173.788 146.829L142.309 178.317L205.165 178.674L173.788 146.829Z" fill="#28296A"/>
<path d="M211.005 115.952L160.41 65.3578L121.938 103.654L144.941 126.658L196.587 127.887L211.005 115.952Z" fill="#29C3FF"/>
<path d="M207.84 189.551L230.844 166.547L219.073 178.317L207.84 189.551Z" fill="#29C3FF"/>
<path d="M196.593 124.033H142.309L169.372 151.263L196.593 124.033Z" fill="#0795FF"/>
<path d="M192.559 174.452L207.843 189.562L222.423 175.158L192.559 174.452Z" fill="#28296A"/>
<path d="M222.247 127.195L207.845 112.791L192.734 127.901L222.247 127.195Z" fill="#28296A"/>
<path d="M230.849 135.803L219.078 124.033H196.591L169.363 151.263L196.593 178.493H219.081L230.851 166.723C232.896 164.701 234.52 162.294 235.628 159.64C236.736 156.986 237.307 154.139 237.307 151.263C237.306 148.387 236.736 145.539 235.627 142.886C234.518 140.232 232.894 137.825 230.849 135.803V135.803Z" fill="#061F6A"/>
</g>
</svg>
