<svg width="235" height="44" viewBox="0 0 235 44" fill="none" xmlns="http://www.w3.org/2000/svg">
<path d="M0 1.07294H7.15534V26.455C7.15534 26.7368 7.26965 27.007 7.47315 27.2062C7.67666 27.4054 7.95271 27.5174 8.24051 27.5174H22.2259V33.5478H4.89045C3.59342 33.5478 2.34952 33.0434 1.43238 32.1456C0.515241 31.2477 0 30.0299 0 28.7602V1.07294Z" fill="#516885"/>
<path d="M23.9298 21.8573C23.8725 19.4047 24.563 16.9909 25.9132 14.9241C27.2635 12.8574 29.2123 11.2314 31.5107 10.2538C33.8091 9.27617 36.353 8.99127 38.8176 9.43542C41.2822 9.87957 43.5556 11.0326 45.3478 12.7474C47.14 14.4622 48.3696 16.6609 48.8795 19.0629C49.3895 21.4649 49.1568 23.9612 48.2111 26.2331C47.2653 28.505 45.6495 30.4495 43.5698 31.8184C41.4902 33.1872 39.0411 33.9183 36.5351 33.9183C34.8836 33.9933 33.234 33.7347 31.689 33.1588C30.144 32.5828 28.7365 31.7018 27.5542 30.5705C26.3718 29.4393 25.4399 28.0819 24.8164 26.5829C24.1929 25.084 23.8911 23.4754 23.9298 21.8573ZM42.5058 21.8573C42.5058 17.9594 40.0887 15.3153 36.5351 15.3153C32.9814 15.3153 30.5642 17.9594 30.5642 21.8573C30.5642 25.7082 32.9814 28.3523 36.5351 28.3523C40.0887 28.3523 42.5058 25.7082 42.5058 21.8573Z" fill="#516885"/>
<path d="M76.2934 10.1649V34.9397C76.2934 39.8042 72.6917 43.0117 67.2899 43.0117H55.2521V37.9557H66.2464C66.7277 37.9506 67.2028 37.8485 67.6421 37.6559C68.0814 37.4633 68.4756 37.1843 68.8 36.8362C69.1244 36.4881 69.3723 36.0784 69.528 35.6325C69.6838 35.1867 69.7442 34.7142 69.7055 34.2445V31.183C68.9073 32.105 67.9008 32.8323 66.7657 33.3074C65.6305 33.7824 64.3979 33.992 63.1656 33.9197C56.1049 33.9197 51.886 29.1414 51.886 21.8587C51.886 14.5759 56.1033 9.79615 63.0695 9.79615C64.3025 9.73768 65.5334 9.94888 66.6727 10.4144C67.812 10.8799 68.831 11.588 69.6558 12.4873V10.1681L76.2934 10.1649ZM70.0853 21.8571C70.0853 17.9137 67.7628 15.3151 64.2091 15.3151C60.702 15.3151 58.3809 17.9121 58.3809 21.8571C58.3809 25.8021 60.7036 28.3521 64.2091 28.3521C67.7628 28.3521 70.0853 25.8053 70.0853 21.8571Z" fill="#516885"/>
<path d="M84.8448 0.00585938H84.7967C82.873 0.00585938 81.3136 1.53232 81.3136 3.4153C81.3136 5.29828 82.873 6.82474 84.7967 6.82474H84.8448C86.7685 6.82474 88.3279 5.29828 88.3279 3.4153C88.3279 1.53232 86.7685 0.00585938 84.8448 0.00585938Z" fill="#516885"/>
<path d="M88.1363 10.1661H81.5018V33.549H88.1363V10.1661Z" fill="#516885"/>
<path d="M121.256 1.07294H134.903C141.964 1.07294 146.087 5.34124 146.087 11.3262C146.087 17.2641 141.964 21.5795 134.903 21.5795H128.412V33.5494H121.256V1.07294ZM134.477 15.7796C135.089 15.8021 135.699 15.7036 136.271 15.4899C136.843 15.2762 137.365 14.9518 137.806 14.5361C138.247 14.1203 138.597 13.6218 138.837 13.0702C139.077 12.5187 139.2 11.9255 139.2 11.3262C139.2 10.7269 139.077 10.1337 138.837 9.58217C138.597 9.03065 138.247 8.53211 137.806 8.11635C137.365 7.70059 136.843 7.37618 136.271 7.1625C135.699 6.94883 135.089 6.85029 134.477 6.87278H128.412V15.7749L134.477 15.7796Z" fill="#516885"/>
<path d="M190.194 25.6136C189.247 30.6712 184.696 33.9179 178.814 33.9179C177.182 33.9586 175.56 33.6725 174.046 33.0772C172.532 32.4818 171.158 31.5899 170.009 30.4561C168.859 29.3222 167.959 27.9704 167.362 26.4836C166.766 24.9968 166.486 23.4064 166.54 21.8099C166.54 15.872 170.236 9.79437 178.341 9.79437C186.775 9.79437 190.14 15.872 190.14 21.2073C190.14 22.0892 190.091 22.7765 190.045 23.2943H172.894C172.967 24.7686 173.63 26.1554 174.74 27.1541C175.85 28.1529 177.318 28.683 178.825 28.6296C181.479 28.6296 183.233 27.6081 183.754 25.6136H190.194ZM172.997 19.2144H183.564C183.545 18.5689 183.394 17.9339 183.119 17.3466C182.845 16.7594 182.454 16.2319 181.968 15.7952C181.482 15.3584 180.912 15.0214 180.291 14.8039C179.67 14.5863 179.01 14.4928 178.352 14.5287C175.361 14.5271 173.559 15.9645 172.997 19.2144Z" fill="#516885"/>
<path d="M193.171 25.6609H198.858C198.98 26.6749 199.507 27.6005 200.324 28.2351C201.141 28.8697 202.181 29.1617 203.218 29.0473C205.255 29.0473 206.677 28.0728 206.677 26.7735C206.677 21.9952 193.834 26.6809 193.834 16.8451C193.834 12.7165 197.483 9.793 202.365 9.793C208.099 9.793 211.982 12.809 212.223 17.4021H206.489C206.328 16.5098 205.839 15.7059 205.115 15.142C204.39 14.5781 203.48 14.2931 202.556 14.3406C200.708 14.3406 199.428 15.1252 199.428 16.6144C199.428 21.3927 212.508 15.9647 212.508 26.5428C212.508 30.9962 208.812 33.9181 203.219 33.9181C197.388 33.9197 193.408 30.7185 193.171 25.6609Z" fill="#516885"/>
<path d="M215.422 25.6609H221.109C221.231 26.6749 221.758 27.6005 222.575 28.2351C223.392 28.8697 224.433 29.1617 225.469 29.0473C227.507 29.0473 228.928 28.0728 228.928 26.7735C228.928 21.9952 216.086 26.6809 216.086 16.8451C216.086 12.7165 219.734 9.793 224.617 9.793C230.35 9.793 234.234 12.809 234.474 17.4021H228.741C228.58 16.5098 228.091 15.7059 227.366 15.142C226.642 14.5781 225.732 14.2931 224.807 14.3406C222.959 14.3406 221.68 15.1252 221.68 16.6144C221.68 21.3927 234.758 15.9647 234.758 26.5428C234.758 30.9962 231.062 33.9181 225.471 33.9181C219.64 33.9197 215.659 30.7185 215.422 25.6609Z" fill="#516885"/>
<path d="M115.763 18.9792V33.5462H109.129V20.2597C109.14 19.6646 109.03 19.0732 108.806 18.5202C108.581 17.9672 108.246 17.4636 107.82 17.0388C107.394 16.614 106.886 16.2766 106.325 16.0462C105.765 15.8159 105.163 15.6973 104.555 15.6973C103.947 15.6973 103.345 15.8159 102.785 16.0462C102.224 16.2766 101.716 16.614 101.29 17.0388C100.864 17.4636 100.529 17.9672 100.304 18.5202C100.08 19.0732 99.9698 19.6646 99.9812 20.2597V33.5462H93.3467V18.9792C93.3467 13.5968 96.8491 9.793 102.256 9.793H106.856C112.261 9.793 115.763 13.5968 115.763 18.9792Z" fill="#516885"/>
<path d="M161.917 10.1663H157.918C155.635 10.1663 153.447 11.0539 151.833 12.6339C150.219 14.214 149.312 16.3569 149.312 18.5914V33.5492H155.946V22.1833C155.946 18.1944 157.416 15.5487 160.686 15.5487H164.62V10.1663H161.917Z" fill="#516885"/>
</svg>
