<svg width="14" height="8" viewBox="0 0 14 8" fill="none" xmlns="http://www.w3.org/2000/svg">
<path d="M13.6943 0.306019C14.1019 0.714045 14.1019 1.37559 13.6943 1.78361L7.79042 7.69398C7.38284 8.10201 6.72203 8.10201 6.31445 7.69398C5.90687 7.28595 5.90687 6.62441 6.31445 6.21639L12.2183 0.306019C12.6259 -0.102006 13.2867 -0.102007 13.6943 0.306019Z" fill="#516885"/>
<path d="M0.305684 0.306019C-0.101895 0.714045 -0.101895 1.37559 0.305684 1.78361L6.20958 7.69398C6.61716 8.10201 7.27797 8.10201 7.68555 7.69398C8.09313 7.28595 8.09313 6.62441 7.68555 6.21639L1.78166 0.306019C1.37408 -0.102006 0.713263 -0.102007 0.305684 0.306019Z" fill="#516885"/>
</svg>
