<?xml version="1.0" encoding="utf-8"?>
<!-- Generator: Adobe Illustrator 24.0.1, SVG Export Plug-In . SVG Version: 6.00 Build 0)  -->
<svg version="1.1" id="Loginpress_new_logo" xmlns="http://www.w3.org/2000/svg" xmlns:xlink="http://www.w3.org/1999/xlink"
	 x="0px" y="0px" viewBox="0 0 1031.7 246.1" style="enable-background:new 0 0 1031.7 246.1;" xml:space="preserve">
<style type="text/css">
	.st0{fill:#F6366A;}
	.st1{fill:#29C3FF;}
	.st2{fill:#28296A;}
	.st3{fill:#0795FF;}
	.st4{fill:#061F6A;}
	.st5{fill:#8C8F94;}
</style>
<g>
	<path class="st0" d="M47.8,19.2H0v127.5c0,15.8,12.8,28.6,28.6,28.6h19.1H28.7C12.9,175.3,0,162.5,0,146.7v-19.1h47.8V19.2"/>
	<polyline class="st1" points="124.3,127.6 47.8,127.6 47.8,175.3 124.3,175.3 148.2,151.4 124.3,127.6 	"/>
	<path class="st2" d="M47.8,127.6H0v19.1c0,15.8,12.8,28.6,28.6,28.6h19.1V127.6"/>
	<polyline class="st0" points="202.2,164.9 202.2,164.9 182,185.2 172.1,175.3 124.3,175.3 106.5,193.2 140.2,226.9 202.2,164.9 	
		"/>
	<polyline class="st2" points="148.2,151.4 124.3,175.3 172.1,175.3 148.2,151.4 	"/>
	<path class="st1" d="M140.2,76l-33.8,33.8l17.8,17.8h47.8l9.9-9.9l20.3,20.3c3.7,3.7,5.6,8.6,5.6,13.5c0-4.9-1.9-9.8-5.6-13.5
		L140.2,76"/>
	<polyline class="st3" points="172.1,127.6 124.3,127.6 148.2,151.4 172.1,127.6 	"/>
	<path class="st2" d="M202.2,164.9l-10.4,10.4h-19.8l9.9,9.9L202.2,164.9 M182,117.7l-9.9,9.9h19.8l10.4,10.4
		c3.7,3.7,5.6,8.6,5.6,13.5l0,0c0-4.9-1.9-9.8-5.6-13.5L182,117.7"/>
	<path class="st4" d="M191.8,127.6h-19.8l-23.9,23.9l23.9,23.9h19.8l10.4-10.4c3.7-3.7,5.6-8.6,5.6-13.5s-1.9-9.8-5.6-13.5
		L191.8,127.6"/>
	<path class="st5" d="M276.2,49.3h23v83.4c0,1.9,1.6,3.5,3.5,3.5h45V156H292c-8.7,0-15.7-7-15.7-15.7V49.3z"/>
	<path class="st5" d="M353.2,117.6c0-22.9,16.9-39.6,40.6-39.6c23.6,0,40.6,16.8,40.6,39.6c0,22.9-16.9,39.6-40.6,39.6
		C370.2,157.3,353.2,140.5,353.2,117.6z M413,117.6c0-12.8-7.8-21.5-19.2-21.5c-11.4,0-19.2,8.7-19.2,21.5
		c0,12.7,7.8,21.3,19.2,21.3C405.2,139,413,130.3,413,117.6z"/>
	<path class="st5" d="M521.7,79.2v81.4c0,16-11.6,26.5-29,26.5H454v-16.6h35.4c6.4,0,11.1-5,11.1-12.2v-10.1c-4,5.6-12,9-21,9
		c-22.7,0-36.3-15.7-36.3-39.6c0-23.9,13.6-39.6,36-39.6c9.3,0,16.9,3.5,21.2,8.8v-7.6H521.7z M501.8,117.6c0-13-7.5-21.5-18.9-21.5
		c-11.3,0-18.8,8.5-18.8,21.5c0,13,7.5,21.3,18.8,21.3C494.3,139,501.8,130.6,501.8,117.6z"/>
	<path class="st5" d="M560.5,57L560.5,57c0,6.2-5,11.2-11.2,11.2h-0.2c-6.2,0-11.2-5-11.2-11.2s5-11.2,11.2-11.2h0.2
		C555.4,45.8,560.5,50.8,560.5,57z"/>
	<rect x="538.5" y="79.2" class="st5" width="21.3" height="76.9"/>
	<path class="st5" d="M666.4,49.3h43.9c22.7,0,36,14,36,33.7c0,19.5-13.3,33.7-36,33.7h-20.9V156h-23V49.3z M709,97.6
		c10.7,0,15.2-6.9,15.2-14.6s-4.6-14.6-15.2-14.6h-19.5v29.3H709z"/>
	<path class="st5" d="M888.3,130c-3,16.6-17.7,27.3-36.6,27.3c-26.1,0-39.5-20.4-39.5-39.8c0-19.5,11.9-39.5,38-39.5
		c27.1,0,38,20,38,37.5c0,2.9-0.2,5.2-0.3,6.9h-55.2c1.5,10.8,8.4,17.5,19.1,17.5c8.5,0,14.2-3.4,15.9-9.9H888.3z M832.9,108.9h34
		c-0.6-8.5-6.6-15.4-16.8-15.4C840.5,93.5,834.7,98.2,832.9,108.9z"/>
	<path class="st5" d="M897.8,130.1h18.3c0.8,6.9,6.1,11.1,14,11.1c6.6,0,11.1-3.2,11.1-7.5c0-15.7-41.3-0.3-41.3-32.6
		c0-13.6,11.7-23.2,27.4-23.2c18.5,0,31,9.9,31.7,25h-18.5c-0.9-6.6-6.9-10.1-12.7-10.1c-5.9,0-10.1,2.6-10.1,7.5
		c0,15.7,42.1-2.1,42.1,32.6c0,14.6-11.9,24.2-29.9,24.2C911.4,157.3,898.6,146.7,897.8,130.1z"/>
	<path class="st5" d="M969.4,130.1h18.3c0.8,6.9,6.1,11.1,14,11.1c6.6,0,11.1-3.2,11.1-7.5c0-15.7-41.3-0.3-41.3-32.6
		c0-13.6,11.7-23.2,27.4-23.2c18.5,0,31,9.9,31.7,25h-18.5c-0.9-6.6-6.9-10.1-12.7-10.1c-5.9,0-10.1,2.6-10.1,7.5
		c0,15.7,42.1-2.1,42.1,32.6c0,14.6-11.9,24.2-29.9,24.2C983,157.3,970.2,146.7,969.4,130.1z"/>
	<path class="st5" d="M648.7,108.1V156h-21.3v-43.7c0-8.1-6.6-14.7-14.7-14.7c-8.1,0-14.7,6.6-14.7,14.7V156h-21.3v-47.9
		c0-17.7,11.3-30.2,28.7-30.2h14.8C637.5,78,648.7,90.5,648.7,108.1z"/>
	<path class="st5" d="M797.3,79.2h-12.9c-15.3,0-27.7,12.4-27.7,27.7v6.1V156H778v-37.4c0-13.1,4.7-21.8,15.2-21.8H806V79.2H797.3z"
		/>
</g>
</svg>
