<svg width="8" height="15" viewBox="0 0 8 15" fill="none" xmlns="http://www.w3.org/2000/svg">
<path d="M0.306019 0.719869C0.714044 0.31229 1.37559 0.31229 1.78361 0.719869L7.69398 6.62376C8.10201 7.03134 8.10201 7.69216 7.69398 8.09974C7.28595 8.50732 6.62441 8.50732 6.21639 8.09974L0.306019 2.19584C-0.102007 1.78826 -0.102007 1.12745 0.306019 0.719869Z" fill="#869AC1"/>
<path d="M0.306019 14.1085C0.714045 14.5161 1.37559 14.5161 1.78361 14.1085L7.69398 8.2046C8.10201 7.79703 8.10201 7.13621 7.69398 6.72863C7.28595 6.32105 6.62441 6.32105 6.21639 6.72863L0.306019 12.6325C-0.102006 13.0401 -0.102007 13.7009 0.306019 14.1085Z" fill="#869AC1"/>
</svg>
