<svg width="8" height="14" viewBox="0 0 8 14" fill="none" xmlns="http://www.w3.org/2000/svg">
<path d="M7.69398 0.305684C7.28596 -0.101894 6.62441 -0.101894 6.21639 0.305684L0.30602 6.20958C-0.102007 6.61716 -0.102007 7.27797 0.30602 7.68555C0.714045 8.09313 1.37559 8.09313 1.78361 7.68555L7.69398 1.78166C8.10201 1.37408 8.10201 0.713264 7.69398 0.305684Z" fill="#869AC1"/>
<path d="M7.69398 13.6943C7.28595 14.1019 6.62441 14.1019 6.21639 13.6943L0.30602 7.79042C-0.102007 7.38284 -0.102007 6.72203 0.30602 6.31445C0.714045 5.90687 1.37559 5.90687 1.78361 6.31445L7.69398 12.2183C8.10201 12.6259 8.10201 13.2867 7.69398 13.6943Z" fill="#869AC1"/>
</svg>
